<svg width="109" height="26" viewBox="0 0 109 26" fill="none" xmlns="http://www.w3.org/2000/svg">
<path fill-rule="evenodd" clip-rule="evenodd" d="M21.3321 0.966797C22.2815 0.966797 23.0511 1.7364 23.0511 2.68575V11.2805C23.0511 12.2299 23.8207 12.9995 24.77 12.9995H29.9269C30.8762 12.9995 31.6458 12.2299 31.6458 11.2805V9.56157C31.6458 8.61222 32.4154 7.84261 33.3648 7.84261C34.3142 7.84261 35.0838 8.61222 35.0838 9.56157V11.2805C35.0838 14.1286 32.7749 16.4374 29.9269 16.4374H24.77C21.922 16.4374 19.6132 14.1286 19.6132 11.2805V2.68575C19.6132 1.7364 20.3828 0.966797 21.3321 0.966797Z" fill="#2C2C31"/>
<path fill-rule="evenodd" clip-rule="evenodd" d="M24.77 19.8753C24.77 18.9259 25.5396 18.1563 26.489 18.1563H31.6458C32.5952 18.1563 33.3648 18.9259 33.3648 19.8753V21.5943C33.3648 22.5436 32.5952 23.3132 31.6458 23.3132C30.6965 23.3132 29.9269 22.5436 29.9269 21.5943H26.489C25.5396 21.5943 24.77 20.8246 24.77 19.8753Z" fill="#2C2C31"/>
<path fill-rule="evenodd" clip-rule="evenodd" d="M16.1753 0.966797C17.1246 0.966797 17.8942 1.7364 17.8942 2.68575V14.6939C17.8942 18.4913 14.8151 21.5942 11.0177 21.5942C7.22027 21.5942 4.14258 18.4913 4.14258 14.6939V11.256C4.14258 10.3067 4.91218 9.53706 5.86153 9.53706C6.81088 9.53706 7.58049 10.3067 7.58049 11.256V14.6939C7.58049 16.5926 9.11897 18.1563 11.0177 18.1563C12.9164 18.1563 14.4563 16.5926 14.4563 14.6939V2.68575C14.4563 1.7364 15.2259 0.966797 16.1753 0.966797Z" fill="#2C2C31"/>
<path fill-rule="evenodd" clip-rule="evenodd" d="M70.6391 17.6416C70.9273 17.2985 71.1818 16.6973 71.1818 15.7928V9.56157C71.1818 8.61222 71.9514 7.84261 72.9007 7.84261C73.8501 7.84261 74.6197 8.61222 74.6197 9.56157V15.7928C74.6197 17.3235 74.1866 18.7635 73.2715 19.8529C72.3345 20.9683 70.9882 21.5943 69.4628 21.5943C68.5135 21.5943 67.7439 20.8246 67.7439 19.8753C67.7439 18.9259 68.5135 18.1563 69.4628 18.1563C70.0002 18.1563 70.3729 17.9586 70.6391 17.6416Z" fill="#2C2C31"/>
<path fill-rule="evenodd" clip-rule="evenodd" d="M77.5149 17.6416C77.8032 17.2985 78.0576 16.6973 78.0576 15.7928V9.56157C78.0576 8.61222 78.8272 7.84261 79.7766 7.84261C80.7259 7.84261 81.4955 8.61222 81.4955 9.56157V15.7928C81.4955 17.3235 81.0624 18.7635 80.1474 19.8529C79.2103 20.9683 77.864 21.5943 76.3387 21.5943C75.3893 21.5943 74.6197 20.8246 74.6197 19.8753C74.6197 18.9259 75.3893 18.1563 76.3387 18.1563C76.876 18.1563 77.2487 17.9586 77.5149 17.6416Z" fill="#2C2C31"/>
<path fill-rule="evenodd" clip-rule="evenodd" d="M79.7767 6.12366C80.7244 6.12366 81.4955 5.35249 81.4955 4.40461C81.4955 3.45673 80.7244 2.68575 79.7767 2.68575C78.8286 2.68575 78.0576 3.45673 78.0576 4.40461C78.0576 5.35249 78.8286 6.12366 79.7767 6.12366Z" fill="#2C2C31"/>
<path fill-rule="evenodd" clip-rule="evenodd" d="M57.4302 19.8753C57.4302 18.9259 58.1998 18.1563 59.1491 18.1563H64.306C65.2553 18.1563 66.0249 18.9259 66.0249 19.8753C66.0249 20.8246 65.2553 21.5943 64.306 21.5943H59.1491C58.1998 21.5943 57.4302 20.8246 57.4302 19.8753Z" fill="#2C2C31"/>
<path fill-rule="evenodd" clip-rule="evenodd" d="M48.8354 7.84261C49.7847 7.84261 50.5543 8.61222 50.5543 9.56157V11.4524C50.5543 12.288 51.206 12.9995 52.2733 12.9995H62.587C63.6543 12.9995 64.306 12.288 64.306 11.4524V9.56157C64.306 8.61222 65.0756 7.84261 66.0249 7.84261C66.9743 7.84261 67.7439 8.61222 67.7439 9.56157V11.4524C67.7439 14.4143 65.3171 16.4374 62.587 16.4374H52.2733C49.5432 16.4374 47.1164 14.4143 47.1164 11.4524V9.56157C47.1164 8.61222 47.886 7.84261 48.8354 7.84261Z" fill="#2C2C31"/>
<path fill-rule="evenodd" clip-rule="evenodd" d="M43.6786 6.12366C44.6263 6.12366 45.3975 5.35249 45.3975 4.40461C45.3975 3.45673 44.6263 2.68575 43.6786 2.68575C42.7306 2.68575 41.9596 3.45673 41.9596 4.40461C41.9596 5.35249 42.7306 6.12366 43.6786 6.12366Z" fill="#2C2C31"/>
<path fill-rule="evenodd" clip-rule="evenodd" d="M38.5217 7.84261C39.471 7.84261 40.2406 8.61222 40.2406 9.56157V14.7184C40.2406 16.6171 41.7798 18.1563 43.6785 18.1563C45.5772 18.1563 47.1164 16.6171 47.1164 14.7184V9.56157C47.1164 8.61222 47.886 7.84261 48.8354 7.84261C49.7847 7.84261 50.5543 8.61222 50.5543 9.56157V14.7184C50.5543 18.5158 47.4759 21.5943 43.6785 21.5943C39.8811 21.5943 36.8027 18.5158 36.8027 14.7184V9.56157C36.8027 8.61222 37.5723 7.84261 38.5217 7.84261Z" fill="#2C2C31"/>
<path d="M96.135 5.16068C96.319 4.70385 96.7646 4.4043 97.2601 4.4043H105.037C105.894 4.4043 106.481 5.26406 106.162 6.05445L100.207 20.8375C100.023 21.2943 99.5772 21.5938 99.0816 21.5938H91.3048C90.4475 21.5938 89.8613 20.7341 90.1797 19.9437L96.135 5.16068Z" fill="url(#paint0_linear_2901_14533)"/>
<path d="M92.8424 14.718C95.6905 14.718 97.9993 12.4092 97.9993 9.56116C97.9993 6.7131 95.6905 4.4043 92.8424 4.4043C89.9944 4.4043 87.6855 6.7131 87.6855 9.56116C87.6855 12.4092 89.9944 14.718 92.8424 14.718Z" fill="#0A33FF"/>
<path d="M97.9995 9.56072C97.9995 12.4088 95.6907 14.7176 92.8427 14.7176C92.6583 14.7176 92.4762 14.7079 92.2969 14.689L96.0042 5.48633C97.2183 6.4298 97.9995 7.90403 97.9995 9.56072Z" fill="url(#paint1_linear_2901_14533)"/>
<defs>
<linearGradient id="paint0_linear_2901_14533" x1="101.374" y1="4.4043" x2="95.2972" y2="21.6148" gradientUnits="userSpaceOnUse">
<stop stop-color="#FFD60A"/>
<stop offset="1" stop-color="#F0BA09"/>
</linearGradient>
<linearGradient id="paint1_linear_2901_14533" x1="95.9666" y1="5.49268" x2="92.2835" y2="14.6726" gradientUnits="userSpaceOnUse">
<stop stop-color="#051A80"/>
<stop offset="1" stop-color="#0A33FF"/>
</linearGradient>
</defs>
</svg>
